<?xml version="1.0" encoding="UTF-8"?>
<svg version="1.1" xmlns="http://www.w3.org/2000/svg" width="1636" height="517">
<path d="M0 0 C2 1 2 1 2.62091255 2.85822678 C2.79605322 3.6767374 2.97119389 4.49524803 3.15164185 5.33856201 C3.35633087 6.27509613 3.5610199 7.21163025 3.77191162 8.17654419 C4.09775238 9.73029251 4.09775238 9.73029251 4.43017578 11.31542969 C4.7817424 12.94220139 4.7817424 12.94220139 5.14041138 14.60183716 C5.91713252 18.20676586 6.6814347 21.81420473 7.4453125 25.421875 C7.97994223 27.91966333 8.51517732 30.41732216 9.05099487 32.91485596 C10.17426883 38.15956298 11.29188653 43.40542888 12.40478516 48.65234375 C13.69064783 54.71441985 14.9860512 60.77439393 16.2868768 66.83327556 C17.5379723 72.66119945 18.78315462 78.49037336 20.02550888 84.32016754 C20.55447156 86.80038921 21.0847736 89.28032562 21.61642838 91.75997162 C22.35891829 95.22791871 23.09470614 98.69722008 23.82861328 102.16699219 C24.16052673 103.70859512 24.16052673 103.70859512 24.49914551 105.28134155 C24.69819489 106.22915497 24.89724426 107.17696838 25.10232544 108.15350342 C25.27671206 108.97352215 25.45109867 109.79354088 25.63076973 110.63840866 C26.02007505 113.12839971 26.06425232 115.48383866 26 118 C26.58700684 118.27312012 27.17401367 118.54624023 27.77880859 118.82763672 C29.9433128 119.97008003 31.65517261 121.20353856 33.5390625 122.7578125 C34.19696777 123.29704346 34.85487305 123.83627441 35.53271484 124.3918457 C36.22316895 124.96378662 36.91362305 125.53572754 37.625 126.125 C39.06748544 127.30886539 40.51019325 128.49245988 41.953125 129.67578125 C42.64986328 130.24893066 43.34660156 130.82208008 44.06445312 131.41259766 C48.01048799 134.64886389 52.00966844 137.81870474 56 141 C57.15628906 141.928125 57.15628906 141.928125 58.3359375 142.875 C61.96981408 145.79150936 65.60844399 148.70012164 69.28515625 151.5625 C76.28825324 157.01915324 83.14523703 162.59399696 89.8671875 168.39453125 C92.80192281 170.88445145 95.87091245 173.16905657 98.96044922 175.4621582 C102.25586127 177.94693202 105.4360886 180.56838027 108.625 183.1875 C113.79096478 187.41040399 118.98786857 191.58507102 124.25 195.6875 C129.66270283 199.91145304 134.95092239 204.25845863 140.2109375 208.671875 C145.44986942 213.04498904 150.7979057 217.27893905 156.171875 221.484375 C163.94923337 227.57139163 171.64487019 233.74919569 179.30078125 239.98828125 C186.79036087 246.09153645 194.3558963 252.09151404 202 258 C199.37738022 261.47482117 196.75470571 264.15924568 193.3125 266.8125 C187.3042959 271.61744817 181.752017 276.83982791 176.19067383 282.15161133 C169.95495344 288.09859345 163.49400177 293.74578022 156.92822266 299.32348633 C150.7135698 304.60603166 144.64698362 310.02053408 138.65625 315.5546875 C134.04533837 319.7994385 129.3070704 323.88666989 124.5390625 327.953125 C123.91628418 328.48494385 123.29350586 329.0167627 122.65185547 329.56469727 C121.41016111 330.62420207 120.16705787 331.68205857 118.92236328 332.73803711 C116.41239015 334.87799049 114.00458766 336.9952797 111.703125 339.36328125 C110 341 110 341 108 341 C108 341.66 108 342.32 108 343 C106.6015625 344.41015625 106.6015625 344.41015625 104.625 346.0625 C101.42453655 348.77923786 98.28693937 351.54335219 95.1875 354.375 C91.81059018 357.42858867 88.36782868 360.34429205 84.8125 363.1875 C78.74039764 368.09520773 73.10660129 373.43448988 67.42578125 378.78515625 C63.70078583 382.29203483 59.8855816 385.67245405 56 389 C47.76806606 396.07794811 39.61107178 403.21063195 31.63671875 410.578125 C28.78705219 413.1955965 25.88801207 415.74664189 22.96484375 418.28125 C20.76612403 420.20458335 18.60192318 422.1631583 16.4375 424.125 C12.26178099 427.89785485 8.01644086 431.58089359 3.75 435.25 C-1.3555459 439.64351946 -6.34317833 444.13583979 -11.25 448.75 C-16.06760127 453.27866559 -21.01563093 457.53106872 -26.1875 461.65625 C-30.20141348 465.0011779 -33.99086766 468.57657807 -37.76196289 472.19165039 C-41.78853471 476 -41.78853471 476 -44 476 C-44 476.66 -44 477.32 -44 478 C-45.45029169 479.28744114 -46.96497157 480.50236776 -48.5 481.6875 C-53.57194993 485.73329511 -58.30218703 490.02711194 -63 494.5 C-68.40328201 499.63585584 -73.88284529 504.48827791 -79.72265625 509.125 C-81.80724734 510.84130142 -83.68894751 512.62155353 -85.5625 514.5625 C-86.366875 515.366875 -87.17125 516.17125 -88 517 C-88.66 517 -89.32 517 -90 517 C-93.14260752 505.05985751 -95.71220742 493.0408389 -98.1592083 480.94155312 C-99.28487169 475.38890965 -100.43053146 469.84037247 -101.57226562 464.29101562 C-103.01521847 457.27035903 -104.45226966 450.24862504 -105.87036133 443.22290039 C-107.02569127 437.50167144 -108.19941801 431.78449047 -109.38554573 426.06957054 C-109.83208732 423.90085402 -110.27180887 421.7307214 -110.70449638 419.55919838 C-111.30825404 416.53337453 -111.93537508 413.51328405 -112.56811523 410.4934082 C-112.74022018 409.60144745 -112.91232513 408.70948669 -113.08964539 407.79049683 C-114.24333209 402.43595675 -115.61483773 399.58177779 -120 396 C-120.98355469 395.13761719 -121.96710938 394.27523438 -122.98046875 393.38671875 C-124.04714357 392.48421146 -125.11624113 391.58456133 -126.1875 390.6875 C-126.75992432 390.20603516 -127.33234863 389.72457031 -127.92211914 389.22851562 C-133.911632 384.20758731 -140.01341815 379.33621597 -146.16796875 374.51953125 C-147.3203993 373.61729835 -148.47274036 372.71495116 -149.625 371.8125 C-150.21273193 371.35230469 -150.80046387 370.89210938 -151.40600586 370.41796875 C-156.66738946 366.28619158 -161.85476408 362.06676274 -167.03759766 357.8371582 C-171.32352029 354.34547997 -175.64292352 350.90237327 -180 347.5 C-188.44628809 340.90021042 -196.73752518 334.11185744 -205.04101562 327.33398438 C-211.96288111 321.68632615 -218.89277434 316.05653798 -225.9375 310.5625 C-231.93826176 305.88262819 -237.80962816 301.05642001 -243.67016602 296.20263672 C-248.75807191 291.99805184 -253.91140498 287.88928874 -259.11547852 283.82983398 C-263.47988108 280.4220128 -267.77201642 276.93378139 -272.046875 273.4140625 C-277.988758 268.55680893 -284.0001398 263.7853136 -290 259 C-286.58364123 254.88925937 -283.14995354 251.03668049 -279.125 247.5 C-277.82175781 246.34951172 -277.82175781 246.34951172 -276.4921875 245.17578125 C-275.66976563 244.45777344 -274.84734375 243.73976562 -274 243 C-273.36320312 242.43667969 -272.72640625 241.87335938 -272.0703125 241.29296875 C-269.03443403 238.61540211 -265.97119895 235.97219786 -262.8828125 233.35546875 C-261.71319471 232.36238766 -260.54393608 231.36888343 -259.375 230.375 C-258.48748047 229.62077759 -258.48748047 229.62077759 -257.58203125 228.85131836 C-252.38325448 224.39910041 -247.37752803 219.75584091 -242.44287109 215.01318359 C-238.21295835 211 -238.21295835 211 -236 211 C-236 210.34 -236 209.68 -236 209 C-234.50890766 207.67018907 -232.95293286 206.4130127 -231.375 205.1875 C-226.66658777 201.42684559 -222.20511518 197.49910202 -217.8125 193.375 C-216.60943235 192.24733464 -215.40630904 191.11972867 -214.203125 189.9921875 C-213.36491211 189.20666504 -213.36491211 189.20666504 -212.50976562 188.40527344 C-208.90830438 185.05307244 -205.17070139 181.86098845 -201.43603516 178.65917969 C-193.75184848 172.06420783 -186.18038809 165.38433237 -178.78759766 158.46337891 C-175.22532779 155.1295512 -171.61997256 151.86370223 -167.92578125 148.67578125 C-165.56956532 146.62544325 -163.25442483 144.5321112 -160.9375 142.4375 C-159.29257615 140.95732199 -157.64679352 139.4780976 -156 138 C-155.30003906 137.3709375 -154.60007813 136.741875 -153.87890625 136.09375 C-149.23481722 132 -149.23481722 132 -147 132 C-147 131.34 -147 130.68 -147 130 C-145.3623728 128.54597658 -143.66265804 127.16151322 -141.9375 125.8125 C-137.92597141 122.60635503 -134.21982446 119.3405292 -130.6484375 115.66015625 C-126.6390867 111.62230296 -122.2090631 108.02383548 -117.87109375 104.34765625 C-111.04620208 98.55101331 -104.37417748 92.63555445 -97.83837891 86.51416016 C-94.25955814 83.16275949 -90.63822031 79.87944922 -86.92578125 76.67578125 C-84.56956532 74.62544325 -82.25442483 72.5321112 -79.9375 70.4375 C-78.29257615 68.95732199 -76.64679352 67.4780976 -75 66 C-74.30003906 65.3709375 -73.60007813 64.741875 -72.87890625 64.09375 C-68.23481722 60 -68.23481722 60 -66 60 C-66 59.34 -66 58.68 -66 58 C-64.63671875 56.625 -64.63671875 56.625 -62.6875 55 C-59.28352552 52.11141603 -55.96917602 49.15206322 -52.6875 46.125 C-48.06604254 41.9026099 -43.30188259 37.9125484 -38.41015625 34.0078125 C-35.96121763 32.03951264 -35.96121763 32.03951264 -33.80859375 29.7421875 C-32 28 -32 28 -30 28 C-29.67 27.01 -29.34 26.02 -29 25 C-27.34442971 23.52201683 -25.62553414 22.11417647 -23.875 20.75 C-20.58088526 18.12487 -17.41432313 15.54226902 -14.5 12.5 C-10.05846915 7.88471733 -4.99999491 3.98733772 0 0 Z M-23.77734375 122.65234375 C-24.49019531 123.40644531 -25.20304688 124.16054687 -25.9375 124.9375 C-29.20523513 128.28328612 -32.53121109 131.33470456 -36.1875 134.25 C-41.98606496 138.89210959 -47.36418351 143.91468655 -52.77734375 148.9921875 C-55.82003188 151.84421339 -58.92668682 154.60969821 -62.0859375 157.33203125 C-64.38142795 159.33238721 -66.62505625 161.3860807 -68.875 163.4375 C-73.14295505 167.30781949 -77.58133618 170.8811714 -82.1640625 174.37109375 C-82.76992187 174.90863281 -83.37578125 175.44617188 -84 176 C-84 176.66 -84 177.32 -84 178 C-84.53109375 178.21269531 -85.0621875 178.42539063 -85.609375 178.64453125 C-88.92148502 180.52247598 -91.50932368 183.08041823 -94.25 185.6875 C-95.41725351 186.78201327 -96.58521929 187.87576745 -97.75390625 188.96875 C-98.31480957 189.4946875 -98.87571289 190.020625 -99.45361328 190.5625 C-101.9366098 192.8706597 -104.49408415 195.08818025 -107.05859375 197.3046875 C-109.31728064 199.27706196 -111.53182162 201.2946959 -113.75 203.3125 C-116.55058906 205.85135176 -119.37981941 208.33287346 -122.3046875 210.7265625 C-122.85672852 211.17862061 -123.40876953 211.63067871 -123.97753906 212.09643555 C-125.55588378 213.38123809 -127.14107515 214.65761589 -128.7265625 215.93359375 C-129.47679687 216.61550781 -130.22703125 217.29742187 -131 218 C-131 218.66 -131 219.32 -131 220 C-131.54527344 220.22558594 -132.09054688 220.45117188 -132.65234375 220.68359375 C-135.69807671 222.39143403 -138.05317594 224.67057121 -140.5625 227.0625 C-145.36711306 231.55923891 -150.32198053 235.78714536 -155.44140625 239.92578125 C-157.88080395 241.90336931 -160.297591 243.90040709 -162.6875 245.9375 C-163.33074219 246.48277344 -163.97398437 247.02804688 -164.63671875 247.58984375 C-166.23168547 248.91275231 -166.23168547 248.91275231 -166 251 C-166.556875 251.2475 -167.11375 251.495 -167.6875 251.75 C-170.39971127 253.21606015 -172.63587365 255.02989471 -175 257 C-173.69888863 259.95299133 -172.45693024 261.72613359 -169.91015625 263.69921875 C-168.98988647 264.42226196 -168.98988647 264.42226196 -168.05102539 265.15991211 C-167.39481201 265.66401611 -166.73859863 266.16812012 -166.0625 266.6875 C-164.68710645 267.76512289 -163.31210863 268.84325104 -161.9375 269.921875 C-160.92429688 270.71174805 -160.92429688 270.71174805 -159.890625 271.51757812 C-157.41865502 273.45582731 -154.98769978 275.44114653 -152.5625 277.4375 C-142.42357941 285.75622861 -132.2659555 294.04296866 -121.93383789 302.12109375 C-117.57271563 305.53582323 -113.27261442 309.01871711 -108.99609375 312.5390625 C-104.5658444 316.1779896 -100.11058533 319.78601331 -95.65673828 323.39599609 C-95.01075684 323.92016113 -94.36477539 324.44432617 -93.69921875 324.984375 C-93.0757959 325.48904297 -92.45237305 325.99371094 -91.81005859 326.51367188 C-90.06460533 327.94694939 -88.35549396 329.41653292 -86.64453125 330.890625 C-84.30320218 333.20785594 -84.30320218 333.20785594 -82 333 C-81.83564453 333.84534302 -81.83564453 333.84534302 -81.66796875 334.70776367 C-77.73085262 354.86747874 -73.38178085 374.93330554 -69 395 C-65.28151944 395 -64.72513871 394.15593473 -62.0625 391.6875 C-60.00438397 389.79593671 -58.0247062 388.01759835 -55.74609375 386.39453125 C-54.88177734 385.70423828 -54.88177734 385.70423828 -54 385 C-54 384.34 -54 383.68 -54 383 C-53.46117187 382.78085937 -52.92234375 382.56171875 -52.3671875 382.3359375 C-49.19382189 380.5450282 -46.74001237 378.12604089 -44.125 375.625 C-39.51666593 371.28959688 -34.83088618 367.08585437 -30 363 C-24.70340447 358.51072241 -19.56027523 353.88631659 -14.47924805 349.1550293 C-11.01794442 345.93262015 -7.51020004 342.78078112 -3.93359375 339.6875 C-1.72147948 337.75692755 0.4508891 335.78576111 2.625 333.8125 C6.62730026 330.19633284 10.70268297 326.67974469 14.8125 323.1875 C20.10540312 318.687921 25.23367827 314.04576518 30.3046875 309.29858398 C34.55005834 305.35041512 38.99736678 301.70629736 43.51953125 298.078125 C45.81987294 296.1509096 47.91153486 294.1520087 50 292 C52.90376116 289.00788911 55.93500468 286.35950562 59.1875 283.75 C64.10636537 279.80124419 68.74583607 275.63167269 73.34521484 271.3215332 C77.02441692 267.87638131 80.78931314 264.57690708 84.70703125 261.40234375 C86.33892735 259.95030911 86.33892735 259.95030911 86 257 C83.93679969 255.16269753 81.89766045 253.51780235 79.6875 251.875 C78.3937914 250.88768745 77.10083092 249.89939389 75.80859375 248.91015625 C75.1626123 248.41918457 74.51663086 247.92821289 73.85107422 247.42236328 C71.27172769 245.44039641 68.75907883 243.38240004 66.25 241.3125 C62.11958207 237.91451083 57.96287662 234.5534649 53.78125 231.21875 C51.69559335 229.55491155 49.6124067 227.88819961 47.53125 226.21875 C41.9159769 221.71653313 36.29670642 217.22233823 30.61987305 212.79785156 C24.91220565 208.34799529 19.33143943 203.78855738 13.84570312 199.06762695 C8.96698858 194.89752325 3.8596066 191.07584933 -1.3203125 187.2890625 C-5.67895181 183.56579335 -7.29268791 179.77682606 -8.42626953 174.23168945 C-8.66306427 173.09733963 -8.89985901 171.96298981 -9.14382935 170.79426575 C-9.38769379 169.57954086 -9.63155823 168.36481598 -9.8828125 167.11328125 C-10.27957813 165.19868826 -10.67634609 163.28409576 -11.07325554 161.36953259 C-11.62471286 158.69758615 -12.16750962 156.02390777 -12.71044922 153.35021973 C-13.66512809 148.65750644 -14.63310993 143.96752678 -15.60153198 139.27763367 C-16.11604719 136.78214145 -16.62698383 134.28590832 -17.13406372 131.78889465 C-17.36455414 130.66400131 -17.59504456 129.53910797 -17.83251953 128.38012695 C-18.13538376 126.89051201 -18.13538376 126.89051201 -18.44436646 125.37080383 C-18.90354099 123.00014875 -18.90354099 123.00014875 -20 121 C-22.16033023 120.77303895 -22.16033023 120.77303895 -23.77734375 122.65234375 Z " fill="#FFFFFF" transform="translate(290,0)"/>
<path d="M0 0 C5.48204892 0.00256109 10.9640963 0.00017652 16.4461453 -0.00138617 C25.62005283 -0.0031935 34.79395225 -0.00083582 43.96785855 0.00395441 C54.58041753 0.00943174 65.1929574 0.00760368 75.80551594 0.00212801 C84.94734269 -0.00239978 94.08916368 -0.00305645 103.23099118 -0.00043333 C108.67951741 0.00112651 114.12803461 0.00133045 119.57656026 -0.00196981 C124.67637087 -0.00484489 129.77615651 -0.00287967 134.8759644 0.00292444 C136.75096843 0.0042524 138.62597454 0.00385732 140.50097775 0.00166178 C143.04798593 -0.00104737 145.59491266 0.00232801 148.14191556 0.00734186 C148.89303961 0.00511114 149.64416366 0.00288042 150.41804904 0.0005821 C155.50336438 0.02017313 155.50336438 0.02017313 156.61751676 1.1343255 C156.7629332 2.69040336 156.84026684 4.2529149 156.88973355 5.81498957 C156.93803563 7.31355494 156.93803563 7.31355494 156.98731351 8.84239435 C157.09832458 13.46548815 157.18056539 18.08843952 157.24227262 22.7124505 C157.28374219 25.13930836 157.3449203 27.56591814 157.42684293 29.99174738 C158.20321441 53.36293025 158.20321441 53.36293025 151.90267301 60.88823175 C150.18519302 62.68039801 148.42873696 64.43695143 146.61751676 66.1343255 C145.62678758 67.34566239 144.65688162 68.57497355 143.72689176 69.83354425 C142.94829801 70.81967707 142.16970426 71.80580988 141.36751676 72.8218255 C137.03045603 78.32372397 132.72575862 83.85012007 128.43001676 89.3843255 C124.19042618 94.84365645 119.92791957 100.28054839 115.59407926 105.6655755 C111.70181049 110.52706534 107.87059967 115.43693367 104.02767301 120.3374505 C102.67376907 122.06264665 101.31794176 123.78630799 99.96126676 125.5093255 C94.21735076 132.80608094 88.5066767 140.12804966 82.80965543 147.46147394 C78.82383014 152.58992065 74.81924435 157.70305129 70.80111051 162.8062005 C67.05495925 167.56807207 63.33450837 172.34967135 59.61751676 177.1343255 C54.08306289 184.25765727 48.52443488 191.36129277 42.94417691 198.44877863 C40.6666547 201.34241377 38.39227668 204.23851873 36.11751676 207.1343255 C35.20086446 208.30100346 34.28419781 209.46767014 33.36751676 210.6343255 C32.91376676 211.2118255 32.46001676 211.7893255 31.99251676 212.3843255 C30.61751676 214.1343255 29.24251676 215.8843255 27.86751676 217.6343255 C27.41352506 218.21214777 26.95953336 218.78997004 26.49178433 219.38530207 C25.57761661 220.54875873 24.6633916 221.7121704 23.74910855 222.87553644 C21.41872976 225.8409445 19.0894356 228.80719407 16.76204801 231.7749505 C15.81811938 232.97813968 14.8741098 234.18126534 13.93001676 235.3843255 C13.24322843 236.25951838 13.24322843 236.25951838 12.54256558 237.15239191 C9.24775376 241.34557287 5.92106605 245.51196121 2.56673551 249.657763 C-0.14446393 253.10245327 -2.75228598 256.62739583 -5.38248324 260.1343255 C47.74751676 260.1343255 100.87751676 260.1343255 155.61751676 260.1343255 C152.46189353 279.06806487 142.68217245 296.28677429 135.61751676 314.1343255 C61.36751676 314.1343255 -12.88248324 314.1343255 -89.38248324 314.1343255 C-89.38248324 259.44347377 -89.38248324 259.44347377 -75.00748324 241.2593255 C-74.07643809 240.07968186 -73.14545025 238.89999298 -72.21451449 237.720263 C-71.74867953 237.13083918 -71.28284457 236.54141535 -70.8028934 235.93413019 C-68.89663098 233.51870108 -66.99838597 231.09702478 -65.0997684 228.67558527 C-61.46486573 224.04067375 -57.8181948 219.41653722 -54.13248324 214.8218255 C-48.94038214 208.34746462 -43.87552149 201.77809715 -38.81998324 195.1968255 C-32.98354792 187.59929944 -27.09633017 180.04145392 -21.21011996 172.48247004 C-19.39261726 170.14734568 -17.57672537 167.8109784 -15.76138949 165.47416925 C-10.04863772 158.12129984 -4.32551471 150.77726371 1.43465543 143.46147394 C5.18061689 138.69997106 8.90080856 133.91868421 12.61751676 129.1343255 C17.20484925 123.22924955 21.80808844 117.33739767 26.43392301 111.4624505 C30.18007462 106.70057848 33.90045508 101.91892568 37.61751676 97.1343255 C46.22008182 86.06507094 54.86395164 75.03287164 63.64730191 64.10624933 C64.35958951 63.21909235 64.35958951 63.21909235 65.08626676 62.314013 C65.50327847 61.79564875 65.92029019 61.27728449 66.34993863 60.74321222 C67.80381868 58.89785985 69.20795181 57.01374543 70.61751676 55.1343255 C-7.59248324 54.6393255 -7.59248324 54.6393255 -87.38248324 54.1343255 C-85.50086569 48.48947284 -83.60288871 42.94481207 -81.42154574 37.423388 C-81.14910037 36.72974146 -80.876655 36.03609491 -80.5959537 35.32142878 C-80.02401818 33.8673225 -79.45089748 32.41368185 -78.87662387 30.96049738 C-78.01270619 28.77255304 -77.15439957 26.58246583 -76.29654574 24.392138 C-73.20545757 16.53259078 -69.96903941 8.78422617 -66.38248324 1.1343255 C-44.26742324 -0.16414864 -22.1438252 -0.01360238 0 0 Z " fill="#FFFFFF" transform="translate(664.3824832439423,101.86567449569702)"/>
<path d="M0 0 C79.2 0 158.4 0 240 0 C238.25835312 5.22494064 236.55496811 10.30443341 234.546875 15.40625 C234.09183594 16.56382813 233.63679688 17.72140625 233.16796875 18.9140625 C232.46607422 20.68910156 232.46607422 20.68910156 231.75 22.5 C231.07130859 24.22863281 231.07130859 24.22863281 230.37890625 25.9921875 C226.68306132 35.37155866 222.83958089 44.67530356 219 54 C167.85 54 116.7 54 64 54 C64 78.09 64 102.18 64 127 C95.68 127 127.36 127 160 127 C156.62485278 138.25049072 156.62485278 138.25049072 155.11474609 141.95898438 C154.60939835 143.20947571 154.60939835 143.20947571 154.09384155 144.48522949 C153.74060822 145.34604126 153.38737488 146.20685303 153.0234375 147.09375 C152.65272125 148.00709106 152.282005 148.92043213 151.90005493 149.8614502 C150.72927567 152.74271323 149.55215251 155.62133583 148.375 158.5 C147.57772606 160.46077533 146.7808475 162.42171148 145.984375 164.3828125 C144.53402597 167.94820122 143.08335654 171.51345102 141.62646484 175.07617188 C141.3357309 175.78769409 141.04499695 176.49921631 140.74545288 177.2322998 C140.20762461 178.50765759 139.61899866 179.76200267 139 181 C113.92 181 88.84 181 63 181 C63 207.07 63 233.14 63 260 C120.75 260 178.5 260 238 260 C237.3014594 264.1912436 236.74057772 267.09269817 235.25 270.88793945 C234.89292969 271.80521317 234.53585937 272.72248688 234.16796875 273.66755676 C233.78253906 274.63964584 233.39710938 275.61173492 233 276.61328125 C232.60425781 277.62343796 232.20851563 278.63359467 231.80078125 279.67436218 C230.96630242 281.80100195 230.12900282 283.92653677 229.2890625 286.05102539 C227.99862677 289.31597443 226.71736578 292.5844106 225.4375 295.85351562 C224.62553388 297.91948074 223.81305195 299.98524322 223 302.05078125 C222.42185547 303.5240966 222.42185547 303.5240966 221.83203125 305.0271759 C221.47496094 305.92868881 221.11789062 306.83020172 220.75 307.7590332 C220.43546875 308.55590042 220.1209375 309.35276764 219.796875 310.17378235 C219 312 219 312 218 313 C215.55628725 313.10656085 213.14049976 313.1477855 210.69593811 313.14717102 C209.92218084 313.15084771 209.14842358 313.1545244 208.35121912 313.1583125 C205.73812715 313.16939416 203.12507489 313.17320082 200.51196289 313.17700195 C198.6462898 313.18326352 196.78061796 313.18991004 194.91494751 313.19691467 C189.82979107 313.21435979 184.74464406 313.22488722 179.65946507 313.2331202 C176.48222327 313.23826576 173.30498441 313.24434187 170.12774467 313.25063133 C160.18690991 313.26969813 150.24608261 313.28392284 140.30523306 313.2922433 C128.83158297 313.30200478 117.35812637 313.32828962 105.88454443 313.36874419 C97.01819765 313.39893173 88.15190621 313.41371491 79.28550905 313.41702431 C73.98997106 313.41937293 68.69463941 313.42830806 63.39915657 313.45348549 C58.41115711 313.47681548 53.42349907 313.48097957 48.43545914 313.47072411 C46.60939459 313.47022974 44.78331297 313.47652084 42.95730019 313.49028015 C29.90855423 313.58306117 18.81481002 312.48968174 9 303 C0.69220342 293.3813085 -0.307326 284.50929475 -0.24050903 272.13597107 C-0.24221788 270.96855238 -0.24392673 269.80113368 -0.24568737 268.59833866 C-0.24839926 265.38056494 -0.24219761 262.16295475 -0.23213124 258.94520032 C-0.22345682 255.46679865 -0.22641972 251.98840396 -0.22793579 248.50999451 C-0.22898213 242.49090732 -0.22273187 236.47186364 -0.21146011 230.4527874 C-0.19517391 221.7503274 -0.18999392 213.04788835 -0.18748413 204.34541477 C-0.18311192 190.22464936 -0.16981569 176.10390713 -0.15087891 161.9831543 C-0.13250783 148.26993931 -0.11838028 134.55673065 -0.10986328 120.84350586 C-0.10932729 119.98894698 -0.10879129 119.1343881 -0.10823905 118.25393349 C-0.10407997 111.57026 -0.1001662 104.88658637 -0.09632993 98.20291269 C-0.07747842 65.46858719 -0.03723806 32.73431972 0 0 Z " fill="#FFFFFF" transform="translate(863,102)"/>
<path d="M0 0 C0.79612198 -0.00570007 1.59224396 -0.01140015 2.41249084 -0.01727295 C4.10644191 -0.02674497 5.80041158 -0.03326562 7.49438477 -0.03710938 C10.05584398 -0.04671815 12.61646709 -0.07767799 15.17773438 -0.109375 C25.95257698 -0.18061494 35.21400009 0.28633688 44.59765625 6.203125 C45.40074219 6.698125 46.20382812 7.193125 47.03125 7.703125 C48.988844 9.08242059 50.61555702 10.37543202 52.16015625 12.203125 C52.16015625 12.863125 52.16015625 13.523125 52.16015625 14.203125 C52.82015625 14.203125 53.48015625 14.203125 54.16015625 14.203125 C59.3545927 21.56360703 62.85095317 29.72841575 65.98828125 38.12109375 C66.41496597 39.23590118 66.8416507 40.35070862 67.28126526 41.4992981 C68.66713839 45.12617256 70.03855694 48.75833149 71.41015625 52.390625 C72.38261597 54.94582132 73.35850321 57.49970264 74.3347168 60.0534668 C75.82785291 63.96144726 77.32007941 67.86976071 78.80717468 71.78004456 C83.08919662 83.03928096 87.43413332 94.27355191 91.80032349 105.50039673 C93.75650963 110.53168814 95.70823056 115.56471077 97.66015625 120.59765625 C98.03882339 121.57383408 98.41749054 122.5500119 98.80763245 123.55577087 C102.70397646 133.60179725 106.58985688 143.65185707 110.47265625 153.703125 C110.81246521 154.58265839 111.15227417 155.46219177 111.50238037 156.36837769 C115.37349363 166.38864843 119.24063902 176.4104415 123.10325623 186.43399048 C132.28153695 210.25133252 141.47223901 234.06304686 150.78515625 257.828125 C151.52191701 259.70921844 152.25865247 261.59032178 152.99536133 263.47143555 C157.04103168 273.79984405 157.04103168 273.79984405 161.09375 284.12548828 C162.56358866 287.86739207 164.0286732 291.61112091 165.4899292 295.35638428 C166.01285641 296.69406491 166.53758582 298.03104268 167.06427002 299.36724854 C167.77012061 301.15838407 168.46925337 302.95216276 169.16796875 304.74609375 C169.75022217 306.2314563 169.75022217 306.2314563 170.34423828 307.74682617 C171.16015625 310.203125 171.16015625 310.203125 171.16015625 313.203125 C150.04015625 313.203125 128.92015625 313.203125 107.16015625 313.203125 C104.56717056 307.3689072 102.07738359 301.58922099 99.8046875 295.63671875 C99.49875168 294.84072769 99.19281586 294.04473663 98.87760925 293.22462463 C98.23199319 291.54348626 97.58750265 289.86191524 96.9440918 288.17993164 C95.99451623 285.69776639 95.04154822 283.21692748 94.08789062 280.73632812 C89.04263405 267.58354562 84.10683924 254.39427964 79.16015625 241.203125 C21.24515625 240.708125 21.24515625 240.708125 -37.83984375 240.203125 C-38.33484375 243.173125 -38.33484375 243.173125 -38.83984375 246.203125 C-39.33629157 247.74361157 -39.88255342 249.26898988 -40.47875977 250.77368164 C-40.98047447 252.05276146 -40.98047447 252.05276146 -41.49232483 253.35768127 C-41.85579514 254.26702927 -42.21926544 255.17637726 -42.59375 256.11328125 C-42.97289047 257.07600449 -43.35203094 258.03872772 -43.74266052 259.03062439 C-44.95704245 262.11116884 -46.17936261 265.18848561 -47.40234375 268.265625 C-48.5987158 271.28982153 -49.7933678 274.3146895 -50.98704529 277.33995056 C-51.72768903 279.21551667 -52.47004138 281.09040971 -53.21473694 282.96437073 C-57.19312117 293.00683129 -60.99309099 303.10539901 -64.83984375 313.203125 C-86.28984375 313.203125 -107.73984375 313.203125 -129.83984375 313.203125 C-127.59000676 303.07885856 -127.59000676 303.07885856 -125.78710938 298.5871582 C-125.38421692 297.57340622 -124.98132446 296.55965424 -124.56622314 295.5151825 C-124.13058044 294.43896133 -123.69493774 293.36274017 -123.24609375 292.25390625 C-122.78708679 291.10368484 -122.32807983 289.95346344 -121.85516357 288.76838684 C-120.86884297 286.29887387 -119.88021222 283.83045188 -118.8873291 281.36358643 C-117.32125497 277.47220886 -115.76458447 273.57711642 -114.20996094 269.68115234 C-113.68304607 268.36083919 -113.15612957 267.04052669 -112.62921143 265.72021484 C-112.36778603 265.06509918 -112.10636063 264.40998352 -111.83701324 263.73501587 C-111.04114968 261.74153735 -110.24440734 259.74841206 -109.44744873 257.75537109 C-104.60276187 245.63589753 -99.83402428 233.48728113 -95.08984375 221.328125 C-94.34251276 219.41444408 -93.59511773 217.50078816 -92.84765625 215.5871582 C-91.78790896 212.8737777 -90.72826678 210.16035652 -89.66906738 207.44676208 C-86.90321796 200.36138028 -84.12454926 193.2811195 -81.33984375 186.203125 C-76.63912899 174.24995718 -71.95712257 162.2895018 -67.27734375 150.328125 C-66.89235718 149.34414734 -66.50737061 148.36016968 -66.11071777 147.34637451 C-62.2514977 137.48247441 -58.39305788 127.61826948 -54.53591919 117.7535553 C-44.89301806 93.09242203 -35.22591373 68.44087904 -25.53808594 43.79736328 C-25.09858612 42.67918213 -24.6590863 41.56100098 -24.20626831 40.40893555 C-23.34341602 38.21398266 -22.4802434 36.01915567 -21.61672974 33.82446289 C-19.47441873 28.37666099 -17.34118354 22.92555052 -15.22314453 17.46826172 C-14.80670181 16.39720688 -14.39025909 15.32615204 -13.9611969 14.22264099 C-13.17065534 12.1880798 -12.38225667 10.15268431 -11.59629822 8.11634827 C-11.247491 7.21935715 -10.89868378 6.32236603 -10.53930664 5.39819336 C-10.23392471 4.60891953 -9.92854279 3.81964569 -9.61390686 3.00645447 C-7.81999353 -1.17281298 -3.99352235 0.02196173 0 0 Z M22.16015625 76.203125 C18.25643959 84.65160983 14.97671167 93.32573983 11.66015625 102.015625 C10.67987563 104.57755626 9.69889477 107.13921865 8.71783447 109.70085144 C8.01390145 111.53897092 7.31025469 113.37720004 6.60687256 115.2155304 C3.69869065 122.81165559 0.76733696 130.39869646 -2.16796875 137.984375 C-3.52789668 141.50341066 -4.88744263 145.02259362 -6.24682617 148.5418396 C-7.13703761 150.84441817 -8.02846243 153.14652802 -8.92114258 155.44815063 C-10.18396507 158.70499208 -11.44205425 161.96362734 -12.69921875 165.22265625 C-13.2608371 166.66584229 -13.2608371 166.66584229 -13.83380127 168.13818359 C-14.3622464 169.5118811 -14.3622464 169.5118811 -14.90136719 170.91333008 C-15.3564566 172.08923454 -15.3564566 172.08923454 -15.82073975 173.28889465 C-17.30894911 177.54457894 -18.54436629 181.88486679 -19.83984375 186.203125 C7.55015625 186.203125 34.94015625 186.203125 63.16015625 186.203125 C56.03963609 166.13620455 48.86350616 146.10695088 41.47265625 126.140625 C39.69707931 121.33754877 37.92260132 116.53406712 36.1484375 111.73046875 C35.72595734 110.58710052 35.30347717 109.4437323 34.86819458 108.26571655 C30.92740411 97.59201248 27.03388824 86.90132816 23.16015625 76.203125 C22.83015625 76.203125 22.50015625 76.203125 22.16015625 76.203125 Z " fill="#FFFFFF" transform="translate(1463.83984375,102.796875)"/>
<path d="M0 0 C87.12 0 174.24 0 264 0 C257.10649484 18.38268042 257.10649484 18.38268042 254.640625 24.38671875 C254.36530945 25.06249466 254.0899939 25.73827057 253.80633545 26.43452454 C252.95631176 28.51970958 252.10327485 30.6036436 251.25 32.6875 C250.66775811 34.11384633 250.0857263 35.54027842 249.50390625 36.96679688 C248.44564225 39.56133055 247.3859659 42.15526759 246.32519531 44.7487793 C245.20592704 47.49478071 244.10130238 50.24674406 243 53 C210.66 53 178.32 53 145 53 C145 138.8 145 224.6 145 313 C125.2 313 105.4 313 85 313 C85 227.2 85 141.4 85 53 C50.35 53 15.7 53 -20 53 C-19.29497383 49.47486913 -18.65065793 46.81159452 -17.35766602 43.56445312 C-17.02384415 42.7200769 -16.69002228 41.87570068 -16.34608459 41.0057373 C-15.98566574 40.10665649 -15.62524689 39.20757568 -15.25390625 38.28125 C-14.88273178 37.34575317 -14.51155731 36.41025635 -14.12913513 35.44641113 C-12.94421996 32.46268039 -11.75344392 29.48132881 -10.5625 26.5 C-9.76458715 24.49364337 -8.96705686 22.48713456 -8.16992188 20.48046875 C-5.45511471 13.65024024 -2.72971334 6.82428335 0 0 Z " fill="#FFFFFF" transform="translate(1144,102)"/>
</svg>
